<?xml version="1.0" standalone="no"?>
<!DOCTYPE svg PUBLIC "-//W3C//DTD SVG 20010904//EN"
 "http://www.w3.org/TR/2001/REC-SVG-20010904/DTD/svg10.dtd">
<svg version="1.0" xmlns="http://www.w3.org/2000/svg"
 width="200.000000pt" height="55.000000pt" viewBox="0 0 200.000000 55.000000"
 preserveAspectRatio="xMidYMid meet">
<metadata>
Created by potrace 1.16, written by Peter Selinger 2001-2019
</metadata>
<g transform="translate(0.000000,55.000000) scale(0.100000,-0.100000)"
fill="#000000" stroke="none">
<path d="M725 540 c3 -5 11 -10 16 -10 6 0 7 5 4 10 -3 6 -11 10 -16 10 -6 0
-7 -4 -4 -10z"/>
<path d="M560 450 l0 -60 36 0 c21 0 33 4 29 10 -3 6 -15 10 -26 10 -16 0 -19
7 -19 50 0 28 -4 50 -10 50 -6 0 -10 -27 -10 -60z"/>
<path d="M660 449 c0 -37 4 -58 10 -54 6 3 10 31 10 61 0 30 -4 54 -10 54 -6
0 -10 -27 -10 -61z"/>
<path d="M710 450 l0 -60 36 0 c21 0 33 4 29 10 -3 6 -15 10 -26 10 -10 0 -19
7 -19 15 0 8 9 15 20 15 11 0 20 5 20 10 0 6 -9 10 -20 10 -11 0 -20 7 -20 15
0 9 9 15 25 15 14 0 25 5 25 10 0 6 -16 10 -35 10 l-35 0 0 -60z"/>
<path d="M817 492 c-19 -21 -22 -54 -7 -83 8 -13 21 -19 45 -19 32 0 35 2 35
30 0 21 -5 30 -16 30 -13 0 -14 -3 -5 -14 18 -22 -12 -42 -33 -21 -31 32 -16
75 26 75 17 0 27 4 23 10 -10 16 -51 11 -68 -8z"/>
<path d="M920 450 l0 -60 36 0 c21 0 33 4 29 10 -3 6 -15 10 -26 10 -10 0 -19
7 -19 15 0 8 9 15 20 15 11 0 20 5 20 10 0 6 -9 10 -20 10 -11 0 -20 7 -20 15
0 9 9 15 25 15 14 0 25 5 25 10 0 6 -16 10 -35 10 l-35 0 0 -60z"/>
<path d="M1688 478 c-2 -7 -2 -29 2 -48 3 -25 11 -36 25 -38 15 -2 16 -1 7 6
-8 5 -13 22 -12 38 3 42 1 54 -9 54 -5 0 -11 -6 -13 -12z"/>
<path d="M1062 433 c-2 -39 0 -43 21 -42 16 1 17 3 5 6 -11 3 -18 17 -21 41
l-4 37 -1 -42z"/>
<path d="M1113 430 c0 -25 2 -35 4 -22 2 12 2 32 0 45 -2 12 -4 2 -4 -23z"/>
<path d="M1160 431 c0 -23 2 -41 4 -41 8 0 12 71 4 76 -4 3 -8 -13 -8 -35z"/>
<path d="M1197 462 c6 -4 13 -23 15 -42 3 -27 6 -31 12 -17 12 25 -1 67 -22
67 -11 0 -13 -3 -5 -8z"/>
<path d="M1263 430 c0 -25 2 -35 4 -22 2 12 2 32 0 45 -2 12 -4 2 -4 -23z"/>
<path d="M1314 433 c17 -49 30 -51 44 -6 14 47 8 55 -8 11 l-12 -33 -14 33
c-19 44 -26 41 -10 -5z"/>
<path d="M1403 464 c-18 -8 -16 -49 2 -64 8 -6 22 -10 32 -7 14 4 13 5 -4 6
-33 2 -30 31 3 31 19 0 25 5 22 18 -3 17 -32 25 -55 16z m42 -14 c4 -6 -5 -10
-20 -10 -15 0 -24 4 -20 10 3 6 12 10 20 10 8 0 17 -4 20 -10z"/>
<path d="M1491 425 l1 -40 8 34 c4 18 14 37 21 42 10 6 7 8 -9 6 -19 -1 -22
-7 -21 -42z"/>
<path d="M1554 458 c-4 -7 2 -18 14 -26 28 -18 28 -29 0 -35 -20 -4 -20 -4 4
-6 37 -2 46 18 19 40 -12 10 -20 23 -16 29 3 5 2 10 -4 10 -5 0 -13 -5 -17
-12z"/>
<path d="M1643 430 c0 -25 2 -35 4 -22 2 12 2 32 0 45 -2 12 -4 2 -4 -23z"/>
<path d="M1760 455 c-7 -8 -10 -25 -6 -40 5 -20 12 -25 34 -24 23 2 24 2 5 6
-32 6 -29 33 3 33 18 0 25 5 22 17 -2 9 -10 19 -18 21 -13 5 -13 3 -1 -11 12
-15 11 -17 -9 -17 -16 0 -20 4 -16 15 7 19 2 19 -14 0z"/>
<path d="M336 433 c-9 -9 -8 -91 2 -96 4 -3 27 6 51 21 41 24 42 26 25 40 -33
24 -71 41 -78 35z"/>
<path d="M175 349 c-63 -39 -65 -41 -65 -94 0 -60 2 -64 63 -98 l47 -28 -1 53
c-1 29 -4 83 -8 119 l-6 66 -30 -18z"/>
<path d="M1725 300 c-3 -5 1 -10 9 -10 9 0 16 5 16 10 0 6 -4 10 -9 10 -6 0
-13 -4 -16 -10z"/>
<path d="M990 220 c0 -83 16 -112 22 -39 2 27 9 46 21 53 23 15 37 -6 37 -56
0 -21 5 -38 10 -38 12 0 13 80 1 99 -6 9 -19 12 -40 8 -29 -6 -31 -5 -31 23 0
17 -4 30 -10 30 -6 0 -10 -33 -10 -80z"/>
<path d="M560 215 c0 -43 4 -75 10 -75 6 0 10 22 10 49 0 28 5 53 10 56 6 3
10 -1 10 -10 0 -9 7 -30 16 -47 12 -24 18 -28 25 -17 12 20 11 29 -3 29 -7 0
-21 20 -31 45 -30 71 -47 59 -47 -30z"/>
<path d="M662 253 c-13 -42 -7 -59 7 -22 11 30 19 14 24 -51 2 -28 4 -16 5 33
2 58 -1 77 -11 77 -8 0 -19 -17 -25 -37z"/>
<path d="M899 270 c-7 -14 -12 -29 -10 -35 2 -5 7 -28 10 -50 5 -33 10 -40 31
-43 22 -2 23 -1 8 8 -12 7 -18 23 -18 45 0 22 6 38 18 44 10 6 12 11 4 11 -7
0 -16 10 -21 22 l-8 22 -14 -24z"/>
<path d="M1641 278 c-1 -9 -8 -21 -17 -26 -14 -8 -14 -10 0 -21 10 -8 16 -29
16 -52 0 -35 3 -39 25 -39 l25 0 -20 20 c-30 30 -25 69 10 83 13 5 13 6 -1 6
-9 1 -21 11 -27 24 -8 17 -11 18 -11 5z"/>
<path d="M760 242 c0 -4 12 -8 28 -7 25 0 27 -3 28 -45 0 -34 5 -46 17 -48 13
-3 17 4 17 33 0 55 -15 75 -55 75 -19 0 -35 -4 -35 -8z"/>
<path d="M1138 225 c-8 -18 -9 -35 -2 -53 8 -23 16 -27 49 -29 23 0 29 1 15 4
-58 11 -61 43 -4 43 26 0 34 4 34 18 0 47 -72 60 -92 17z m70 -8 c3 -12 -3
-17 -21 -17 -31 0 -40 10 -25 27 15 18 42 12 46 -10z"/>
<path d="M1270 193 c0 -29 5 -53 10 -53 6 0 10 17 10 39 0 22 6 44 15 51 23
19 45 -5 45 -51 0 -22 5 -39 10 -39 6 0 10 20 10 44 0 31 5 46 16 50 26 10 34
-2 34 -50 0 -32 4 -44 15 -44 11 0 15 11 15 38 0 61 -9 67 -100 68 l-80 1 0
-54z"/>
<path d="M1523 243 c21 -3 27 -10 28 -31 1 -15 2 -36 3 -46 1 -11 7 -21 14
-23 8 -3 12 8 12 35 0 62 -7 72 -49 71 -30 -2 -31 -3 -8 -6z"/>
<path d="M1720 195 c0 -42 3 -55 15 -55 12 0 15 13 15 55 0 42 -3 55 -15 55
-12 0 -15 -13 -15 -55z"/>
<path d="M1804 225 c-25 -39 -7 -79 37 -82 34 -2 34 -2 7 8 -48 18 -45 82 4
92 20 4 19 4 -4 6 -19 1 -33 -7 -44 -24z"/>
<path d="M1921 236 c-13 -15 -9 -21 33 -50 23 -16 12 -40 -15 -33 -11 3 -19 1
-19 -4 0 -5 14 -9 30 -9 46 0 50 27 9 61 -25 20 -30 29 -19 33 8 2 22 7 30 9
8 3 3 6 -11 6 -15 1 -32 -5 -38 -13z"/>
<path d="M765 186 c-24 -17 -13 -46 17 -45 13 0 17 3 11 6 -7 2 -13 13 -13 23
0 10 6 21 13 23 6 3 7 6 1 6 -5 1 -19 -5 -29 -13z"/>
<path d="M1503 193 c-7 -2 -13 -16 -13 -29 0 -20 5 -24 28 -24 23 1 24 2 10
11 -21 12 -24 35 -5 42 6 3 8 5 2 5 -5 0 -16 -2 -22 -5z"/>
<path d="M58 158 c-21 -12 -38 -25 -38 -30 0 -7 72 -48 85 -48 3 0 5 23 5 50
0 28 -3 50 -7 50 -5 0 -25 -10 -45 -22z"/>
<path d="M340 130 l0 -50 40 20 c22 11 40 22 40 24 0 2 -18 15 -40 30 l-40 26
0 -50z"/>
<path d="M167 93 c-52 -29 -52 -29 11 -64 l43 -23 47 26 c26 14 48 30 49 35 3
8 -78 53 -95 53 -4 0 -28 -12 -55 -27z"/>
</g>
</svg>
