<svg xmlns="http://www.w3.org/2000/svg" xmlns:xlink="http://www.w3.org/1999/xlink" width="164.08" height="45" viewBox="0 0 164.08 45">
  <defs>
    <style>
      .a {
        fill: none;
      }

      .b {
        clip-path: url(#a);
      }

      .c, .s {
        fill: #00707f;
      }

      .d {
        fill: #008ec7;
      }

      .e {
        fill: #f8aa00;
      }

      .e, .f, .g, .h, .i, .j, .k, .l, .m, .n, .o, .p, .q, .r, .s, .t, .u, .v {
        fill-rule: evenodd;
      }

      .f {
        fill: #ffd000;
      }

      .g {
        fill: #f07f3c;
      }

      .h {
        fill: #e62d31;
      }

      .i {
        fill: #c6c0b4;
      }

      .j {
        fill: #8c8b82;
      }

      .k {
        fill: #b9cd76;
      }

      .l {
        fill: #7db928;
      }

      .m {
        fill: #289b38;
      }

      .n {
        fill: #00843b;
      }

      .o {
        fill: #005ca9;
      }

      .p {
        fill: #1fbadb;
      }

      .q {
        fill: #a8589e;
      }

      .r {
        fill: #5b257d;
      }

      .t {
        fill: #5fa4b0;
      }

      .u {
        fill: #5b57a2;
      }

      .v {
        fill: #8da6d6;
      }
    </style>
    <clipPath id="a">
      <rect class="a" width="166.51" height="45"/>
    </clipPath>
  </defs>
  <title>Mathematics</title>
  <g class="b">
    <g class="b">
      <path class="c" d="M86.34,6.05h1.72v4.4c0,1.22.35,1.67,1.14,1.67s1.08-.3,1.64-1v-5h1.73v7.38H91.16L91,12.34h0a3,3,0,0,1-2.38,1.27c-1.57,0-2.26-1.07-2.26-2.93Z"/>
      <path class="c" d="M94.56,6.05H96l.12,1h.06a3.41,3.41,0,0,1,2.42-1.18c1.57,0,2.26,1.07,2.26,2.93v4.63H99.13V9c0-1.22-.35-1.67-1.16-1.67a2.32,2.32,0,0,0-1.68.92v5.15H94.56Z"/>
      <rect class="c" x="103.07" y="6.05" width="1.73" height="7.37"/>
      <path class="c" d="M106.09,6.05h1.76L109,9.88c.19.72.42,1.47.61,2.22h.06c.21-.75.42-1.5.63-2.22l1.18-3.83h1.66l-2.51,7.38h-2Z"/>
      <path class="c" d="M117.08,5.87c2,0,3,1.45,3,3.5a3.38,3.38,0,0,1-.08.81h-4.68a2.11,2.11,0,0,0,2.17,2.09,3.15,3.15,0,0,0,1.72-.54l.58,1.08a4.6,4.6,0,0,1-2.52.8,3.56,3.56,0,0,1-3.63-3.86A3.59,3.59,0,0,1,117.08,5.87Zm1.55,3.22c0-1.17-.5-1.88-1.51-1.88s-1.62.65-1.77,1.88Z"/>
      <path class="c" d="M121.93,6.05h1.42l.12,1.31h.06a2.52,2.52,0,0,1,2.09-1.49,1.91,1.91,0,0,1,.84.15l-.3,1.51a2.24,2.24,0,0,0-.76-.12c-.59,0-1.3.4-1.75,1.51v4.51h-1.72Z"/>
      <path class="c" d="M127.53,11.47a3.28,3.28,0,0,0,2,.83c.79,0,1.17-.38,1.17-.89s-.8-.88-1.58-1.18c-1-.36-2.07-.92-2.07-2.15s1-2.21,2.69-2.21a4,4,0,0,1,2.44.89l-.79,1a2.79,2.79,0,0,0-1.62-.63c-.74,0-1.08.35-1.08.81s.73.81,1.53,1.1c1,.37,2.12.85,2.12,2.23s-1,2.29-2.87,2.29a4.63,4.63,0,0,1-2.79-1Z"/>
      <rect class="c" x="134.09" y="6.05" width="1.73" height="7.37"/>
      <path class="c" d="M138.47,7.42h-1.05V6.13l1.14-.08.21-2h1.44v2h1.88V7.42h-1.88v3.51c0,.87.33,1.29,1,1.29a2.1,2.1,0,0,0,.76-.16l.3,1.28a4.79,4.79,0,0,1-1.5.27c-1.71,0-2.34-1.08-2.34-2.68Z"/>
      <path class="c" d="M146.59,5.87c2,0,3,1.45,3,3.5a3.38,3.38,0,0,1-.08.81h-4.68a2.12,2.12,0,0,0,2.18,2.09,3.12,3.12,0,0,0,1.71-.54l.58,1.08a4.6,4.6,0,0,1-2.52.8,3.56,3.56,0,0,1-3.63-3.86A3.59,3.59,0,0,1,146.59,5.87Zm1.55,3.22c0-1.17-.5-1.88-1.5-1.88s-1.63.65-1.78,1.88Z"/>
      <path class="c" d="M102.88,4a1.07,1.07,0,1,1,1.06,1,1,1,0,0,1-1.06-1"/>
      <path class="c" d="M133.89,4A1.07,1.07,0,1,1,135,5a1,1,0,0,1-1.07-1"/>
      <polygon class="c" points="146.77 5.18 145.5 5.18 146.83 2.99 148.56 2.99 146.77 5.18"/>
      <polygon class="c" points="45.46 3.02 47.81 3.02 47.81 11.44 51.92 11.44 51.92 13.41 45.46 13.41 45.46 3.02"/>
      <rect class="c" x="53.45" y="3.02" width="2.34" height="10.4"/>
      <polygon class="c" points="57.64 3.02 64.14 3.02 64.14 4.99 59.98 4.99 59.98 7.08 63.52 7.08 63.52 9.04 59.98 9.04 59.98 11.44 64.3 11.44 64.3 13.41 57.64 13.41 57.64 3.02"/>
      <polygon class="c" points="58.42 0 60.91 0 62.2 1.91 60.33 1.91 58.42 0"/>
      <path class="c" d="M65.1,8.28A6,6,0,0,1,65.51,6a5,5,0,0,1,1.1-1.71,4.67,4.67,0,0,1,1.62-1.07,5.49,5.49,0,0,1,2-.36,4,4,0,0,1,1.9.41,5.08,5.08,0,0,1,1.32.94L72.15,5.63a3.52,3.52,0,0,0-.81-.57,2.43,2.43,0,0,0-1.09-.21,2.72,2.72,0,0,0-1.11.23,2.79,2.79,0,0,0-.87.66,3.06,3.06,0,0,0-.56,1.06,4.34,4.34,0,0,0-.2,1.4,3.85,3.85,0,0,0,.72,2.49,2.69,2.69,0,0,0,2.2.89,2.57,2.57,0,0,0,.62-.08,1.18,1.18,0,0,0,.49-.24V9.47H69.82V7.56h3.79v4.78a4.6,4.6,0,0,1-1.46.9,5.44,5.44,0,0,1-2,.36,5.55,5.55,0,0,1-2-.34,4.45,4.45,0,0,1-1.6-1,4.64,4.64,0,0,1-1.08-1.67,6.26,6.26,0,0,1-.39-2.3"/>
      <polygon class="c" points="75.15 3.02 81.65 3.02 81.65 4.99 77.49 4.99 77.49 7.08 81.03 7.08 81.03 9.04 77.49 9.04 77.49 11.44 81.81 11.44 81.81 13.41 75.15 13.41 75.15 3.02"/>
      <g>
        <path class="d" d="M45.52,20.49h3.29l2.29,6.18.83,2.4H52l.82-2.4,2.24-6.18h3.29V34.24H55.45v-5c0-.34,0-.71,0-1.12s.06-.82.11-1.23l.12-1.22c0-.4.09-.77.13-1.11h-.09L54.65,27.7,52.52,33H51.27L49.16,27.7l-1.09-3.18H48c.05.34.09.71.13,1.11s.08.81.13,1.22.07.83.1,1.23,0,.78,0,1.12v5H45.52Z"/>
        <path class="d" d="M61,31.33a2.94,2.94,0,0,1,1.39-2.57,10.39,10.39,0,0,1,4.49-1.25,1.63,1.63,0,0,0-.42-1.1A1.56,1.56,0,0,0,65.19,26a3.79,3.79,0,0,0-1.35.25,8.91,8.91,0,0,0-1.43.7l-1.1-2.05a10.48,10.48,0,0,1,2.12-1,7.28,7.28,0,0,1,2.35-.38,4,4,0,0,1,3.09,1.15,5.11,5.11,0,0,1,1.06,3.57v6H67.4l-.23-1.07h-.06a6.65,6.65,0,0,1-1.42.95,3.62,3.62,0,0,1-1.64.37,3.3,3.3,0,0,1-1.29-.24,2.76,2.76,0,0,1-1-.67,3.35,3.35,0,0,1-.62-1A3.3,3.3,0,0,1,61,31.33Zm2.95-.23a.87.87,0,0,0,.33.75,1.45,1.45,0,0,0,.87.24,1.78,1.78,0,0,0,.93-.23,4.09,4.09,0,0,0,.8-.66V29.37a5.63,5.63,0,0,0-2.29.67A1.28,1.28,0,0,0,63.9,31.1Z"/>
        <path class="d" d="M73,26.21H71.58v-2.3l1.6-.13L73.54,21h2.57v2.78h2.51v2.43H76.11V30.4a1.86,1.86,0,0,0,.37,1.28,1.29,1.29,0,0,0,1,.39A2.37,2.37,0,0,0,78,32l.47-.15.49,2.25c-.28.09-.61.17-1,.26a6.56,6.56,0,0,1-1.33.12A4.15,4.15,0,0,1,75,34.2a2.9,2.9,0,0,1-1.11-.82,3.43,3.43,0,0,1-.64-1.28,6.54,6.54,0,0,1-.2-1.65Z"/>
        <path class="d" d="M80.67,19.46h3.1v3.63L83.62,25A8.14,8.14,0,0,1,85,24a3.65,3.65,0,0,1,1.85-.45,2.78,2.78,0,0,1,2.48,1.12,5.34,5.34,0,0,1,.77,3.1v6.49H87V28.15a2.87,2.87,0,0,0-.3-1.56,1.14,1.14,0,0,0-1-.43,1.87,1.87,0,0,0-1,.27,5.06,5.06,0,0,0-.92.75v7.06h-3.1Z"/>
        <path class="d" d="M92.1,29a6,6,0,0,1,.42-2.29A5.63,5.63,0,0,1,93.62,25a4.73,4.73,0,0,1,1.58-1.08A4.65,4.65,0,0,1,97,23.53a4.74,4.74,0,0,1,2,.38A3.74,3.74,0,0,1,100.37,25a4.65,4.65,0,0,1,.84,1.59,7.11,7.11,0,0,1,.27,2c0,.28,0,.54,0,.77s-.06.41-.09.54H95.09A2.55,2.55,0,0,0,96,31.59a2.9,2.9,0,0,0,1.78.54,4.36,4.36,0,0,0,2.26-.69l1,1.87a6.85,6.85,0,0,1-1.78.87,6.32,6.32,0,0,1-1.93.31,5.74,5.74,0,0,1-2.09-.37,4.73,4.73,0,0,1-1.69-1.07,4.86,4.86,0,0,1-1.11-1.72A6.2,6.2,0,0,1,92.1,29Zm6.74-1.07a2.49,2.49,0,0,0-.4-1.48,1.52,1.52,0,0,0-1.35-.57,1.88,1.88,0,0,0-1.29.5,2.46,2.46,0,0,0-.73,1.55Z"/>
        <path class="d" d="M103.63,23.78h2.53l.21,1.35h.09A8.28,8.28,0,0,1,107.85,24a3.69,3.69,0,0,1,3.57,0,3.12,3.12,0,0,1,1.09,1.3A8.74,8.74,0,0,1,114,24.05a3.17,3.17,0,0,1,1.83-.52,2.8,2.8,0,0,1,2.47,1.13,5.27,5.27,0,0,1,.79,3.09v6.49H116V28.15a2.87,2.87,0,0,0-.3-1.56,1.13,1.13,0,0,0-1-.43,2.76,2.76,0,0,0-1.79,1v7.06h-3.1V28.15a2.85,2.85,0,0,0-.31-1.56,1.13,1.13,0,0,0-1-.43,2.66,2.66,0,0,0-1.77,1v7.06h-3.1Z"/>
        <path class="d" d="M121.32,31.33a2.92,2.92,0,0,1,1.39-2.57,10.39,10.39,0,0,1,4.49-1.25,1.63,1.63,0,0,0-.42-1.1,1.56,1.56,0,0,0-1.22-.41,3.79,3.79,0,0,0-1.35.25,8.91,8.91,0,0,0-1.43.7l-1.1-2.05a10.48,10.48,0,0,1,2.12-1,7.28,7.28,0,0,1,2.35-.38,4,4,0,0,1,3.09,1.15,5.11,5.11,0,0,1,1.06,3.57v6h-2.53l-.23-1.07h-.06a6.46,6.46,0,0,1-1.43.95,3.55,3.55,0,0,1-1.63.37,3.3,3.3,0,0,1-1.29-.24,2.76,2.76,0,0,1-1-.67,3.35,3.35,0,0,1-.62-1A3.3,3.3,0,0,1,121.32,31.33Zm3-.23a.87.87,0,0,0,.33.75,1.45,1.45,0,0,0,.87.24,1.78,1.78,0,0,0,.93-.23,4.09,4.09,0,0,0,.8-.66V29.37a5.63,5.63,0,0,0-2.29.67A1.28,1.28,0,0,0,124.27,31.1Z"/>
        <path class="d" d="M133.38,26.21H132v-2.3l1.6-.13.36-2.78h2.57v2.78H139v2.43h-2.51V30.4a1.81,1.81,0,0,0,.37,1.28,1.29,1.29,0,0,0,1,.39,2.37,2.37,0,0,0,.52-.06l.47-.15.49,2.25c-.28.09-.61.17-1,.26a6.56,6.56,0,0,1-1.33.12,4.15,4.15,0,0,1-1.66-.29,2.9,2.9,0,0,1-1.11-.82,3.43,3.43,0,0,1-.64-1.28,6.54,6.54,0,0,1-.2-1.65Z"/>
        <path class="d" d="M142.58,22.24a1.88,1.88,0,0,1-1.29-.45,1.49,1.49,0,0,1-.51-1.17,1.45,1.45,0,0,1,.51-1.16,1.87,1.87,0,0,1,1.29-.44,1.84,1.84,0,0,1,1.29.44,1.48,1.48,0,0,1,.5,1.16,1.51,1.51,0,0,1-.5,1.17A1.84,1.84,0,0,1,142.58,22.24ZM141,23.78h3.1V34.24H141Z"/>
        <path class="d" d="M146.24,29a5.73,5.73,0,0,1,.45-2.33A5,5,0,0,1,147.88,25a5.15,5.15,0,0,1,1.74-1.06,5.78,5.78,0,0,1,2.06-.37,4.52,4.52,0,0,1,1.76.33,3.86,3.86,0,0,1,1.3.87l-1.41,1.92a2.29,2.29,0,0,0-1.46-.61,2.21,2.21,0,0,0-1.79.8,3.36,3.36,0,0,0-.65,2.17,3.29,3.29,0,0,0,.66,2.17,2.08,2.08,0,0,0,1.68.8,2.2,2.2,0,0,0,1-.23,5.51,5.51,0,0,0,.85-.52l1.24,2a4.92,4.92,0,0,1-1.69,1,5.53,5.53,0,0,1-1.79.31,5.39,5.39,0,0,1-2-.37,4.73,4.73,0,0,1-1.64-1.06,4.87,4.87,0,0,1-1.09-1.72A6.29,6.29,0,0,1,146.24,29Z"/>
        <path class="d" d="M157.17,31.1a6.12,6.12,0,0,0,1.37.82,3.45,3.45,0,0,0,1.33.28,1.69,1.69,0,0,0,1-.24.75.75,0,0,0,.31-.65.68.68,0,0,0-.17-.45,1.75,1.75,0,0,0-.49-.37,4.78,4.78,0,0,0-.68-.31l-.79-.3c-.32-.13-.64-.28-1-.45a4.12,4.12,0,0,1-.88-.62,2.75,2.75,0,0,1-.65-.86,2.5,2.5,0,0,1-.26-1.15,3.12,3.12,0,0,1,.29-1.33,2.82,2.82,0,0,1,.81-1,3.79,3.79,0,0,1,1.26-.67,5.35,5.35,0,0,1,1.65-.24,5.16,5.16,0,0,1,2.11.41,8.21,8.21,0,0,1,1.58.92l-1.39,1.85a5.47,5.47,0,0,0-1.12-.65,2.89,2.89,0,0,0-1.1-.23c-.78,0-1.18.27-1.18.82a.61.61,0,0,0,.17.43,1.64,1.64,0,0,0,.45.33,5.24,5.24,0,0,0,.66.28l.77.29a9.71,9.71,0,0,1,1,.43,4.22,4.22,0,0,1,.91.6,2.79,2.79,0,0,1,.66.88,2.73,2.73,0,0,1,.25,1.23,3.26,3.26,0,0,1-.27,1.33,2.89,2.89,0,0,1-.82,1.06,4.14,4.14,0,0,1-1.35.72,5.89,5.89,0,0,1-1.86.26,6.06,6.06,0,0,1-2.12-.4A6.45,6.45,0,0,1,155.78,33Z"/>
      </g>
      <polygon class="e" points="0 24.05 9.07 18.81 0 13.57 0 24.05"/>
      <polygon class="f" points="0 24.05 9.07 29.29 9.07 18.81 0 24.05"/>
      <polygon class="g" points="0 34.52 9.07 29.29 0 24.05 0 34.52"/>
      <polygon class="h" points="0 34.52 9.07 39.76 9.07 29.29 0 34.52"/>
      <polygon class="i" points="0 3.1 0 13.57 9.07 8.33 0 3.1 0 3.1"/>
      <polygon class="j" points="0 13.57 9.07 18.81 9.07 8.33 0 13.57"/>
      <polygon class="k" points="18.14 13.57 9.07 8.33 9.07 18.81 18.14 13.57"/>
      <polygon class="l" points="9.07 18.81 18.14 24.05 18.14 13.57 9.07 18.81"/>
      <polygon class="m" points="18.14 24.05 9.07 18.81 9.07 29.29 18.14 24.05"/>
      <polygon class="n" points="9.07 29.29 18.14 34.52 18.14 24.05 9.07 29.29"/>
      <polygon class="o" points="9.07 39.76 18.14 45 18.14 34.52 9.07 39.76"/>
      <polygon class="p" points="18.14 34.52 9.07 29.29 9.07 39.76 18.14 34.52"/>
      <polygon class="q" points="18.14 34.52 27.22 39.76 27.22 29.29 18.14 34.52"/>
      <polygon class="r" points="18.14 45 27.22 39.76 18.14 34.52 18.14 45"/>
      <polygon class="s" points="27.22 18.81 36.29 13.57 27.22 8.33 27.22 18.81"/>
      <polygon class="t" points="36.29 3.1 27.22 8.33 36.29 13.57 36.29 3.1 36.29 3.1"/>
      <polygon class="u" points="27.22 39.76 36.29 34.52 27.22 29.29 27.22 39.76"/>
      <polygon class="v" points="27.22 29.29 36.29 34.52 36.29 24.05 27.22 29.29"/>
    </g>
  </g>
</svg>
